<svg xmlns="http://www.w3.org/2000/svg" version="1.1" xmlns:xlink="http://www.w3.org/1999/xlink" xmlns:svgjs="http://svgjs.com/svgjs" width="500" height="500"><svg width="500" height="500" viewBox="0 0 500 500" fill="none" xmlns="http://www.w3.org/2000/svg">
<path fill-rule="evenodd" clip-rule="evenodd" d="M215.656 72.4296L234.261 70L237.291 76.1861L254.415 133.186L260.507 184.131C280.569 185.087 299.608 188.671 312 194.884C321.468 199.63 326.514 220.209 326.884 221.766C328.585 223.533 330.286 225.453 331.995 227.539C350.701 250.372 362 273.497 362 305.911C362 338.325 344.451 381.043 325.745 403.876C305.75 423.469 287.516 430 249.5 430C211.484 430 193.25 423.469 173.255 403.876C154.549 381.043 137 338.325 137 305.911C137 273.497 148.299 250.372 167.005 227.539C168.68 225.495 170.347 223.61 172.014 221.872C171.943 221.864 171.906 221.86 171.906 221.86C171.906 221.86 177.159 199.818 187 194.884C200.03 188.351 220.408 184.725 241.596 184.005L235.81 135.616L218.686 78.6157L215.656 72.4296Z" fill="#F4B41A"></path>
<circle cx="250" cy="250" r="245" stroke="#F4B41A" stroke-width="10"></circle>
</svg><style>@media (prefers-color-scheme: light) { :root { filter: none; } }
</style></svg>